<mxfile host="app.diagrams.net" agent="Mozilla/5.0 (Macintosh; Intel Mac OS X 10_15_7) AppleWebKit/537.36 (KHTML, like Gecko) Chrome/129.0.0.0 Safari/537.36" version="24.7.16">
  <diagram name="Page-1" id="e7e014a7-5840-1c2e-5031-d8a46d1fe8dd">
    <mxGraphModel dx="1800" dy="1221" grid="1" gridSize="10" guides="1" tooltips="1" connect="1" arrows="1" fold="1" page="1" pageScale="1" pageWidth="1169" pageHeight="826" background="none" math="0" shadow="0">
      <root>
        <mxCell id="0" />
        <mxCell id="1" parent="0" />
        <mxCell id="2wPHxD9nb724yZ33WKzz-41" value="" style="ellipse;html=1;shape=startState;" vertex="1" parent="1">
          <mxGeometry x="575" y="40" width="30" height="30" as="geometry" />
        </mxCell>
        <mxCell id="2wPHxD9nb724yZ33WKzz-42" value="" style="edgeStyle=orthogonalEdgeStyle;html=1;verticalAlign=bottom;endArrow=open;endSize=8;rounded=0;entryX=0.486;entryY=-0.053;entryDx=0;entryDy=0;entryPerimeter=0;exitX=0.484;exitY=0.85;exitDx=0;exitDy=0;exitPerimeter=0;" edge="1" source="2wPHxD9nb724yZ33WKzz-41" parent="1" target="2wPHxD9nb724yZ33WKzz-43">
          <mxGeometry relative="1" as="geometry">
            <mxPoint x="585" y="130" as="targetPoint" />
          </mxGeometry>
        </mxCell>
        <mxCell id="2wPHxD9nb724yZ33WKzz-43" value="kiểm tra thông báo" style="rhombus;whiteSpace=wrap;html=1;" vertex="1" parent="1">
          <mxGeometry x="540" y="140" width="100" height="70" as="geometry" />
        </mxCell>
        <mxCell id="2wPHxD9nb724yZ33WKzz-44" value="no" style="edgeStyle=orthogonalEdgeStyle;html=1;align=left;verticalAlign=bottom;endArrow=open;endSize=8;rounded=0;entryX=0.462;entryY=-0.019;entryDx=0;entryDy=0;entryPerimeter=0;" edge="1" source="2wPHxD9nb724yZ33WKzz-43" parent="1" target="2wPHxD9nb724yZ33WKzz-46">
          <mxGeometry x="-1" relative="1" as="geometry">
            <mxPoint x="730" y="160" as="targetPoint" />
          </mxGeometry>
        </mxCell>
        <mxCell id="2wPHxD9nb724yZ33WKzz-45" value="Đánh giá mới" style="edgeStyle=orthogonalEdgeStyle;html=1;align=left;verticalAlign=top;endArrow=open;endSize=8;rounded=0;" edge="1" source="2wPHxD9nb724yZ33WKzz-43" parent="1">
          <mxGeometry x="-1" relative="1" as="geometry">
            <mxPoint x="590" y="240" as="targetPoint" />
          </mxGeometry>
        </mxCell>
        <mxCell id="2wPHxD9nb724yZ33WKzz-46" value="&lt;font style=&quot;font-size: 11px;&quot;&gt;Chờ lần kiểm tra tiếp theo&lt;/font&gt;" style="rounded=0;whiteSpace=wrap;html=1;" vertex="1" parent="1">
          <mxGeometry x="720" y="240" width="120" height="30" as="geometry" />
        </mxCell>
        <mxCell id="2wPHxD9nb724yZ33WKzz-47" value="" style="endArrow=classic;html=1;rounded=0;exitX=1;exitY=0.5;exitDx=0;exitDy=0;entryX=0.631;entryY=0.114;entryDx=0;entryDy=0;entryPerimeter=0;" edge="1" parent="1" source="2wPHxD9nb724yZ33WKzz-46" target="2wPHxD9nb724yZ33WKzz-43">
          <mxGeometry width="50" height="50" relative="1" as="geometry">
            <mxPoint x="610" y="270" as="sourcePoint" />
            <mxPoint x="610" y="150" as="targetPoint" />
            <Array as="points">
              <mxPoint x="880" y="255" />
              <mxPoint x="880" y="150" />
            </Array>
          </mxGeometry>
        </mxCell>
        <mxCell id="2wPHxD9nb724yZ33WKzz-48" value="&lt;font style=&quot;font-size: 11px;&quot;&gt;Tạo ra thông báo đánh giá mới&lt;/font&gt;" style="rounded=0;whiteSpace=wrap;html=1;" vertex="1" parent="1">
          <mxGeometry x="530" y="240" width="120" height="30" as="geometry" />
        </mxCell>
        <mxCell id="2wPHxD9nb724yZ33WKzz-49" value="" style="edgeStyle=orthogonalEdgeStyle;html=1;align=left;verticalAlign=top;endArrow=open;endSize=8;rounded=0;exitX=0.352;exitY=0.848;exitDx=0;exitDy=0;exitPerimeter=0;" edge="1" parent="1" source="2wPHxD9nb724yZ33WKzz-43">
          <mxGeometry x="-1" relative="1" as="geometry">
            <mxPoint x="440" y="240" as="targetPoint" />
            <mxPoint x="440" y="200" as="sourcePoint" />
          </mxGeometry>
        </mxCell>
        <mxCell id="2wPHxD9nb724yZ33WKzz-51" value="Tin nhắn mới từ người thuê" style="edgeLabel;html=1;align=center;verticalAlign=middle;resizable=0;points=[];" vertex="1" connectable="0" parent="2wPHxD9nb724yZ33WKzz-49">
          <mxGeometry x="0.2392" y="-1" relative="1" as="geometry">
            <mxPoint as="offset" />
          </mxGeometry>
        </mxCell>
        <mxCell id="2wPHxD9nb724yZ33WKzz-50" value="&lt;font style=&quot;font-size: 11px;&quot;&gt;Tạo ra thông báo tin nhắn mới&lt;/font&gt;" style="rounded=0;whiteSpace=wrap;html=1;" vertex="1" parent="1">
          <mxGeometry x="380" y="240" width="120" height="30" as="geometry" />
        </mxCell>
        <mxCell id="2wPHxD9nb724yZ33WKzz-55" value="&lt;font style=&quot;font-size: 11px;&quot;&gt;Tạo ra thông báo yêu cầu đặt phòng&lt;/font&gt;" style="rounded=0;whiteSpace=wrap;html=1;" vertex="1" parent="1">
          <mxGeometry x="220" y="240" width="120" height="30" as="geometry" />
        </mxCell>
        <mxCell id="2wPHxD9nb724yZ33WKzz-58" value="" style="edgeStyle=orthogonalEdgeStyle;html=1;align=left;verticalAlign=top;endArrow=open;endSize=8;rounded=0;entryX=0.5;entryY=0;entryDx=0;entryDy=0;exitX=0.338;exitY=0.123;exitDx=0;exitDy=0;exitPerimeter=0;" edge="1" parent="1" source="2wPHxD9nb724yZ33WKzz-43" target="2wPHxD9nb724yZ33WKzz-55">
          <mxGeometry x="-1" relative="1" as="geometry">
            <mxPoint x="280" y="229.99" as="targetPoint" />
            <mxPoint x="561.417142857143" y="149.998" as="sourcePoint" />
            <Array as="points">
              <mxPoint x="574" y="150" />
              <mxPoint x="280" y="150" />
            </Array>
          </mxGeometry>
        </mxCell>
        <mxCell id="2wPHxD9nb724yZ33WKzz-59" value="Yêu cầu đặt phòng" style="edgeLabel;html=1;align=center;verticalAlign=middle;resizable=0;points=[];" vertex="1" connectable="0" parent="2wPHxD9nb724yZ33WKzz-58">
          <mxGeometry x="0.2392" y="-1" relative="1" as="geometry">
            <mxPoint as="offset" />
          </mxGeometry>
        </mxCell>
        <mxCell id="2wPHxD9nb724yZ33WKzz-66" value="" style="edgeStyle=orthogonalEdgeStyle;rounded=0;orthogonalLoop=1;jettySize=auto;html=1;" edge="1" parent="1" source="2wPHxD9nb724yZ33WKzz-61" target="2wPHxD9nb724yZ33WKzz-65">
          <mxGeometry relative="1" as="geometry" />
        </mxCell>
        <mxCell id="2wPHxD9nb724yZ33WKzz-61" value="&lt;span style=&quot;font-size: 11px;&quot;&gt;Gửi thông báo&lt;/span&gt;" style="rounded=0;whiteSpace=wrap;html=1;" vertex="1" parent="1">
          <mxGeometry x="380" y="340" width="120" height="30" as="geometry" />
        </mxCell>
        <mxCell id="2wPHxD9nb724yZ33WKzz-62" value="" style="endArrow=classic;html=1;rounded=0;exitX=0.5;exitY=1;exitDx=0;exitDy=0;entryX=0.5;entryY=0;entryDx=0;entryDy=0;" edge="1" parent="1" source="2wPHxD9nb724yZ33WKzz-50" target="2wPHxD9nb724yZ33WKzz-61">
          <mxGeometry width="50" height="50" relative="1" as="geometry">
            <mxPoint x="430" y="330" as="sourcePoint" />
            <mxPoint x="480" y="280" as="targetPoint" />
          </mxGeometry>
        </mxCell>
        <mxCell id="2wPHxD9nb724yZ33WKzz-63" value="" style="endArrow=classic;html=1;rounded=0;exitX=0.5;exitY=1;exitDx=0;exitDy=0;entryX=0.429;entryY=-0.027;entryDx=0;entryDy=0;entryPerimeter=0;" edge="1" parent="1" source="2wPHxD9nb724yZ33WKzz-55" target="2wPHxD9nb724yZ33WKzz-61">
          <mxGeometry width="50" height="50" relative="1" as="geometry">
            <mxPoint x="446" y="282" as="sourcePoint" />
            <mxPoint x="390" y="340" as="targetPoint" />
          </mxGeometry>
        </mxCell>
        <mxCell id="2wPHxD9nb724yZ33WKzz-64" value="" style="endArrow=classic;html=1;rounded=0;exitX=0.435;exitY=1.075;exitDx=0;exitDy=0;exitPerimeter=0;entryX=0.681;entryY=-0.062;entryDx=0;entryDy=0;entryPerimeter=0;" edge="1" parent="1" source="2wPHxD9nb724yZ33WKzz-48" target="2wPHxD9nb724yZ33WKzz-61">
          <mxGeometry width="50" height="50" relative="1" as="geometry">
            <mxPoint x="456" y="292" as="sourcePoint" />
            <mxPoint x="400" y="350" as="targetPoint" />
          </mxGeometry>
        </mxCell>
        <mxCell id="2wPHxD9nb724yZ33WKzz-68" value="" style="edgeStyle=orthogonalEdgeStyle;rounded=0;orthogonalLoop=1;jettySize=auto;html=1;" edge="1" parent="1" source="2wPHxD9nb724yZ33WKzz-65" target="2wPHxD9nb724yZ33WKzz-67">
          <mxGeometry relative="1" as="geometry" />
        </mxCell>
        <mxCell id="2wPHxD9nb724yZ33WKzz-65" value="&lt;span style=&quot;font-size: 11px;&quot;&gt;Người dùng nhận thông báo&lt;/span&gt;" style="rounded=0;whiteSpace=wrap;html=1;" vertex="1" parent="1">
          <mxGeometry x="380" y="408" width="120" height="30" as="geometry" />
        </mxCell>
        <mxCell id="2wPHxD9nb724yZ33WKzz-67" value="&lt;font style=&quot;font-size: 8px;&quot;&gt;Người dùng tương tác với thông báo&lt;/font&gt;" style="rhombus;whiteSpace=wrap;html=1;" vertex="1" parent="1">
          <mxGeometry x="400" y="480" width="80" height="80" as="geometry" />
        </mxCell>
        <mxCell id="2wPHxD9nb724yZ33WKzz-75" style="edgeStyle=orthogonalEdgeStyle;rounded=0;orthogonalLoop=1;jettySize=auto;html=1;entryX=0;entryY=0;entryDx=0;entryDy=0;" edge="1" parent="1" source="2wPHxD9nb724yZ33WKzz-69" target="2wPHxD9nb724yZ33WKzz-74">
          <mxGeometry relative="1" as="geometry" />
        </mxCell>
        <mxCell id="2wPHxD9nb724yZ33WKzz-69" value="&lt;span style=&quot;font-size: 11px;&quot;&gt;Mở các phần tương ứng với thông báo&lt;/span&gt;" style="rounded=0;whiteSpace=wrap;html=1;" vertex="1" parent="1">
          <mxGeometry x="260" y="610" width="120" height="30" as="geometry" />
        </mxCell>
        <mxCell id="2wPHxD9nb724yZ33WKzz-77" style="edgeStyle=orthogonalEdgeStyle;rounded=0;orthogonalLoop=1;jettySize=auto;html=1;exitX=0;exitY=0.5;exitDx=0;exitDy=0;entryX=1;entryY=0;entryDx=0;entryDy=0;" edge="1" parent="1" source="2wPHxD9nb724yZ33WKzz-70" target="2wPHxD9nb724yZ33WKzz-74">
          <mxGeometry relative="1" as="geometry" />
        </mxCell>
        <mxCell id="2wPHxD9nb724yZ33WKzz-70" value="&lt;span style=&quot;font-size: 11px;&quot;&gt;Thông báo nằm trong hộp chờ&lt;/span&gt;" style="rounded=0;whiteSpace=wrap;html=1;" vertex="1" parent="1">
          <mxGeometry x="500" y="610" width="120" height="30" as="geometry" />
        </mxCell>
        <mxCell id="2wPHxD9nb724yZ33WKzz-71" value="" style="endArrow=classic;html=1;rounded=0;entryX=0.57;entryY=0.067;entryDx=0;entryDy=0;entryPerimeter=0;" edge="1" parent="1" source="2wPHxD9nb724yZ33WKzz-67" target="2wPHxD9nb724yZ33WKzz-69">
          <mxGeometry width="50" height="50" relative="1" as="geometry">
            <mxPoint x="360" y="580" as="sourcePoint" />
            <mxPoint x="410" y="530" as="targetPoint" />
          </mxGeometry>
        </mxCell>
        <mxCell id="2wPHxD9nb724yZ33WKzz-73" value="" style="endArrow=classic;html=1;rounded=0;entryX=0.5;entryY=0;entryDx=0;entryDy=0;" edge="1" parent="1" source="2wPHxD9nb724yZ33WKzz-67" target="2wPHxD9nb724yZ33WKzz-70">
          <mxGeometry width="50" height="50" relative="1" as="geometry">
            <mxPoint x="428" y="548" as="sourcePoint" />
            <mxPoint x="338" y="622" as="targetPoint" />
          </mxGeometry>
        </mxCell>
        <mxCell id="2wPHxD9nb724yZ33WKzz-74" value="" style="ellipse;html=1;shape=endState;fillColor=#000000;strokeColor=#000000;" vertex="1" parent="1">
          <mxGeometry x="425" y="720" width="30" height="30" as="geometry" />
        </mxCell>
      </root>
    </mxGraphModel>
  </diagram>
</mxfile>
